<svg id="Capa_1" data-name="Capa 1" xmlns="http://www.w3.org/2000/svg" width="50" height="50" viewBox="0 0 50 50"><title>like2</title><path d="M49.92,15.56c-.73-8-6.43-13.88-13.55-13.88A13.46,13.46,0,0,0,24.83,8.33,13,13,0,0,0,13.57,1.68C6.44,1.68.75,7.51,0,15.56a14.3,14.3,0,0,0,.43,5.27A22.55,22.55,0,0,0,7.38,32.4L24.82,48.23,42.56,32.4a22.69,22.69,0,0,0,6.93-11.57A14.55,14.55,0,0,0,49.92,15.56Zm-2.3,4.83A20.72,20.72,0,0,1,41.27,31L24.83,45.64,8.67,31A20.66,20.66,0,0,1,2.32,20.39a12.59,12.59,0,0,1-.4-4.53v-.09C2.56,8.72,7.45,3.6,13.57,3.6a11.3,11.3,0,0,1,10.37,7.24l.88,2.1.89-2.1A11.64,11.64,0,0,1,36.37,3.61c6.11,0,11,5.11,11.64,12.25A12.13,12.13,0,0,1,47.62,20.39Z"/></svg>