<?xml version="1.0" encoding="utf-8"?>
<!-- Generator: Adobe Illustrator 22.1.0, SVG Export Plug-In . SVG Version: 6.00 Build 0)  -->
<svg version="1.1" id="Layer_1" xmlns="http://www.w3.org/2000/svg" xmlns:xlink="http://www.w3.org/1999/xlink" x="0px" y="0px"
	 viewBox="0 0 512 512" style="enable-background:new 0 0 512 512;" xml:space="preserve">
<style type="text/css">
	.st0{fill:#5A4146;}
	.st1{fill:#694B4B;}
	.st2{fill:#E6AF78;}
	.st3{fill:#D29B6E;}
	.st4{fill:#D5DCED;}
	.st5{fill:#AFB9D2;}
	.st6{fill:#F0C087;}
	.st7{fill:#C7CFE2;}
	.st8{fill:#959CB5;}
	.st9{fill:#FF507D;}
	.st10{fill:#707487;}
	.st11{fill:#5B5D6E;}
	.st12{fill:#D23C69;}
</style>
<path class="st0" d="M371.6,227.1v5.8c0,7.1,1.1,14.2,3.4,20.9l13.1,39.4h24.8v-90.8h-16.5C382.7,202.3,371.6,213.4,371.6,227.1z"/>
<path class="st1" d="M484.7,244.3l-14,48.9l-66.1-57.8c-9.1,0-16.5-7.4-16.5-16.5l0,0c0-13.7,11.1-24.8,24.8-24.8h57.8
	c9.1,0,16.5,7.4,16.5,16.5v15.5C487.2,232.2,486.4,238.3,484.7,244.3z"/>
<rect x="404.6" y="317.9" class="st2" width="49.5" height="36.5"/>
<path class="st3" d="M404.6,333.1c7.7,3.1,16,4.9,24.8,4.9s17.1-1.8,24.8-4.9v-15.2h-49.5L404.6,333.1L404.6,333.1z"/>
<path class="st4" d="M494,349.4L454.2,338l-24.8,16.4L404.6,338l-39.8,11.4c-10.6,3-18,12.8-18,23.8v60.4c0,4.6,3.7,8.3,8.3,8.3
	h148.6c4.6,0,8.3-3.7,8.3-8.3v-60.4C512,362.1,504.7,352.4,494,349.4z"/>
<polygon class="st5" points="437.7,441.8 421.2,441.8 425.3,354.5 433.5,354.5 "/>
<path class="st6" d="M429.4,326.2L429.4,326.2c-27.4,0-49.5-22.2-49.5-49.5V267c0-4.4,1.7-8.6,4.8-11.7l15-15c3.2-3.2,7.5-5,12-4.9
	c26.4,0.8,49.8,6.5,62.5,19c3.1,3.1,4.8,7.3,4.8,11.7v10.5C479,304,456.8,326.2,429.4,326.2z"/>
<path class="st2" d="M404.6,269c0-9.5,8-17.1,17.5-16.5c16.7,1.1,41.4,3.9,56.6,11.1c-0.5-3.5-2-6.8-4.5-9.3
	c-12.8-12.5-36.1-18.1-62.5-19l0,0v0c-4.5-0.1-8.8,1.7-12,4.9l-15,15c-3.1,3.1-4.8,7.3-4.8,11.7v9.7c0,22.6,15.1,41.6,35.8,47.6
	c-6.9-8.5-11-19.3-11-31.1L404.6,269L404.6,269z"/>
<path class="st7" d="M479,397.8c0-6.6,2.6-12.9,7.3-17.5l21.3-21.3c2.8,4.1,4.5,9,4.5,14.2v60.4c0,4.6-3.7,8.3-8.3,8.3H479
	L479,397.8L479,397.8z"/>
<path class="st8" d="M433.5,371h-8.3c-2.3,0-4.1-1.8-4.1-4.1v-12.4h16.5v12.4C437.7,369.2,435.8,371,433.5,371z"/>
<g>
	<path class="st7" d="M429.4,354.4l-14,10.7c-2.4,1.8-5.9,1.1-7.4-1.6l-12.6-22.9l5.1-7.7c1.1-1.7,3.5-2,5-0.6L429.4,354.4z"/>
	<path class="st7" d="M429.4,354.4l14,10.7c2.4,1.8,5.9,1.1,7.4-1.6l12.6-22.9l-5.1-7.7c-1.1-1.7-3.5-2-5-0.6L429.4,354.4z"/>
</g>
<path class="st0" d="M147.8,322.7c-7.1-18.7-12.7-50.8-13.9-67.6c-2.3-31.8-26.3-57.8-58.7-57.8s-56.4,26-58.7,57.8
	c-1.2,16.7-6.8,48.9-13.9,67.6c-1.6,4.1,0.2,8.7,4.3,10.5c7.6,3.4,23.7,10.1,43.1,12.8h50.3c19.4-2.6,35.6-9.3,43.1-12.8
	C147.6,331.4,149.4,326.9,147.8,322.7z"/>
<path class="st1" d="M143.5,333.3c4.1-1.8,5.9-6.4,4.3-10.5c-7.1-18.7-12.7-50.8-13.9-67.6c-2.3-31.8-26.3-57.8-58.7-57.8
	c-0.1,0-0.2,0-0.2,0c-24.9,0.1-33.7,34.1-12.3,46.7c1.3,0.8,2.1,1.1,2.1,1.1L83.6,346h16.8C119.7,343.4,136,336.7,143.5,333.3z"/>
<path class="st2" d="M134.9,362.6l-26.7-13.4c-5.6-2.8-9.1-8.5-9.1-14.8l0-24.8H49.5v24.8c0,6.3-3.5,12-9.1,14.8l-26.7,13.4
	C5.3,366.8,0,375.4,0,384.7v48.8c0,4.6,3.7,8.3,8.3,8.3h132.1c4.6,0,8.3-3.7,8.3-8.3v-48.8C148.6,375.4,143.3,366.8,134.9,362.6z"/>
<path class="st3" d="M74.3,342.7c8.9,0,17.4-1.8,25.2-5.1c-0.2-1-0.4-2.1-0.4-3.2l0-24.8H49.5v24.8c0,1.1-0.2,2.1-0.4,3.2
	C56.9,340.9,65.4,342.7,74.3,342.7z"/>
<path class="st4" d="M134.9,362.6l-19-9.5c-8.8,13.6-24.1,22.7-41.6,22.7s-32.8-9-41.6-22.7l-19,9.5C5.3,366.8,0,375.4,0,384.7v48.8
	c0,4.6,3.7,8.3,8.3,8.3h132.1c4.6,0,8.3-3.7,8.3-8.3v-48.8C148.6,375.4,143.3,366.8,134.9,362.6z"/>
<path class="st6" d="M74.3,326.2L74.3,326.2c-25.2,0-46-18.8-49.1-43.1c-0.5-3.5,1.2-7,4.4-8.6c3.8-1.9,9.3-5.2,14.6-9.9
	c5.9-5.3,9.3-10.8,11.3-14.9c1.7-3.5,5.5-5.5,9.3-4.5c29.1,7.4,48.9,22.5,56.1,28.7c1.9,1.7,3,4.1,2.8,6.6
	C121.7,306.1,100.4,326.2,74.3,326.2z"/>
<path class="st2" d="M120.9,273.9c-7.2-6.2-27-21.3-56.1-28.7c-3.8-1-7.6,1-9.3,4.5c-1.5,3.1-3.9,7-7.5,11c0,0,0,0,0,0
	c-1.1,1.3-2.3,2.6-3.7,3.8c-5.3,4.7-10.8,8-14.6,9.9c-3.2,1.6-4.9,5.1-4.4,8.6c2.8,21.9,19.9,39.3,41.6,42.6
	c-9.9-6.7-17.3-16-17.3-32.5v-11.8c1.9-1.4,3.8-2.8,5.7-4.5c4.6-4.1,8.6-8.8,11.8-13.9c22.2,6.9,37.3,18.5,43,23.4
	c1.6,1.4,5.4,5,10,9.2c2-4.7,3.2-9.8,3.7-15.1C123.9,278,122.8,275.6,120.9,273.9z"/>
<path class="st7" d="M5,369.9c-3.2,4.2-5,9.4-5,14.9v48.8c0,4.6,3.7,8.3,8.3,8.3H33v-41.6c0-5-2.3-9.8-6.2-12.9L5,369.9z"/>
<path class="st9" d="M374.6,351.3l-69.1-25.1L256,342.7l-49.5-16.5l-69.1,25.1c-13.1,4.7-21.7,17.2-21.7,31v51.2
	c0,4.6,3.7,8.3,8.3,8.3h264.3c4.6,0,8.3-3.7,8.3-8.3v-51.2C396.4,368.5,387.7,356.1,374.6,351.3z"/>
<polygon class="st10" points="247.3,359.2 239.5,441.8 272.5,441.8 264.7,359.2 "/>
<path class="st11" d="M264.7,370.6h-17.3c-3.2,0-5.8-2.6-5.8-5.8v-22.1h28.9v22.1C270.5,368,267.9,370.6,264.7,370.6z"/>
<path class="st12" d="M387.5,359.9c5.6,6,8.9,14,8.9,22.5v51.2c0,4.6-3.7,8.3-8.3,8.3h-41.3v-27.6c0-8.8,3.5-17.2,9.7-23.4
	L387.5,359.9z"/>
<path class="st0" d="M346.8,155.9V86.7c0-9.1-7.4-16.5-16.5-16.5h-99.1c-36.5,0-66.1,29.6-66.1,66.1v19.6c0,8.9,1.4,17.7,4.2,26.1
	l2.7,8.2c0.8,2.5,1.3,5.2,1.3,7.8v4.2h165.2v-4.2c0-2.7,0.4-5.3,1.3-7.8l2.7-8.2C345.4,173.6,346.8,164.8,346.8,155.9z"/>
<path class="st1" d="M206.5,103.7c0,18.5,15,33.5,33.5,33.5h4.6l2.2,65h91.7v-4.2c0-2.7,0.4-5.3,1.3-7.8l2.7-8.2
	c2.8-8.4,4.2-17.2,4.2-26.1V86.7c0-9.1-7.4-16.5-16.5-16.5H240C221.5,70.2,206.5,85.2,206.5,103.7z"/>
<rect x="206.4" y="268.4" class="st2" width="99.1" height="74.3"/>
<path class="st3" d="M206.5,296.3c14.6,8.5,31.5,13.4,49.5,13.4s35-4.9,49.5-13.4v-27.9h-99.1L206.5,296.3L206.5,296.3z"/>
<g>
	<path class="st12" d="M256,342.7L229.7,369c-3.5,3.5-9.4,3.1-12.4-0.8l-27.3-36l7.1-15.1c2.1-4.4,7.6-6.1,11.8-3.5L256,342.7z"/>
	<path class="st12" d="M256,342.7l26.3,26.3c3.5,3.5,9.4,3.1,12.4-0.8l27.3-36l-7.1-15.1c-2.1-4.4-7.6-6.1-11.8-3.5L256,342.7z"/>
</g>
<path class="st6" d="M256,293.2L256,293.2c-45.6,0-82.6-37-82.6-82.6v-9.7c0-4.4,1.7-8.6,4.8-11.7l6.8-6.8c3.1-3.1,4.8-7.3,4.8-11.7
	v-19.8c0-3.8,2.6-7.1,6.3-8c19.5-4.6,80.3-15.5,121.7,14.9c2.7,2,4.2,5.2,4.2,8.6v4.4c0,4.4,1.7,8.6,4.8,11.7l6.8,6.8
	c3.1,3.1,4.8,7.3,4.8,11.7v9.7C338.6,256.2,301.6,293.2,256,293.2z"/>
<path class="st2" d="M317.9,157.8c-29.1-21.4-67.7-22.3-94.9-19.4c-11.5,1.2-20.9,3.1-26.7,4.5c-3.7,0.9-6.3,4.2-6.3,8v19.8
	c0,4.4-1.7,8.6-4.8,11.7l-6.8,6.8c-3.1,3.1-4.8,7.3-4.8,11.7v9.7c0,42.2,31.7,77,72.6,81.9c-14.2-14.8-23.1-34.9-23.1-57.1V175
	c0-8.4,6.2-15.4,14.5-16.4c19.8-2.5,56.1-4,84.6,12.1v-4.4C322.1,163,320.6,159.7,317.9,157.8z"/>
<path class="st12" d="M124.5,359.9c-5.6,6-8.9,14-8.9,22.5v51.2c0,4.6,3.7,8.3,8.3,8.3h41.3v-27.6c0-8.8-3.5-17.2-9.7-23.4
	L124.5,359.9z"/>
</svg>
